<svg version="1.1" xmlns="http://www.w3.org/2000/svg" xmlns:xlink="http://www.w3.org/1999/xlink" x="0px" y="0px" viewBox="0 0 1000 1000" enable-background="new 0 0 1000 1000" xml:space="preserve">
<g><path d="M437.1,495.5l187.2,116.1c20.3,12.6,21.1,41.9,1.4,55.6L438.5,797c-22,15.3-52.2-0.5-52.2-27.3v-246C386.3,497.7,414.9,481.7,437.1,495.5z M767.3,112.7c18.5,0,33.4-15,33.4-33.4c0-18.5-15-33.4-33.4-33.4H232.7c-18.5,0-33.4,15-33.4,33.4c0,18.5,15,33.4,33.4,33.4H767.3z M878.6,253.3c18.5,0,33.4-15,33.4-33.4c0-18.5-15-33.4-33.4-33.4H121.4c-18.5,0-33.4,15-33.4,33.4c0,18.5,15,33.4,33.4,33.4H878.6z M990,876.2V402.7c0-43.1-34.9-78-78-78H88c-43.1,0-78,34.9-78,78v473.5c0,43.1,34.9,78,78,78H912C955.1,954.2,990,919.3,990,876.2z M112.6,885c-6.2,0-33.4-27.2-33.4-33.4V427.3c0-6.2,27.2-33.4,33.4-33.4h774.9c6.2,0,33.4,27.2,33.4,33.4v424.2c0,6.2-27.2,33.4-33.4,33.4L112.6,885L112.6,885z"/></g>
</svg>